<?xml version="1.0" encoding="UTF-8"?>
<svg id="_Слой_1" data-name="Слой_1" xmlns="http://www.w3.org/2000/svg" version="1.1" viewBox="0 0 1500 392.03">
  <!-- Generator: Adobe Illustrator 29.5.1, SVG Export Plug-In . SVG Version: 2.1.0 Build 141)  -->
  <defs>
    <style>
      .st0 {
        fill: #289b38;
      }

      .st1 {
        fill: #2e2d2c;
      }
    </style>
  </defs>
  <polygon class="st0" points="225.75 148.38 305.21 226.61 374.99 226.61 374.99 38.47 335.42 0 39.08 0 0 38.47 0 336.52 37.63 373.57 37.63 374.99 39.08 374.99 69.96 374.99 77.4 374.99 77.4 196.26 259.42 374.99 335.91 374.99 374.99 336.52 374.99 296.75 296.75 296.75 77.4 85.56 77.4 78.24 295.52 78.24 295.52 148.38 225.75 148.38"/>
  <g>
    <g>
      <path class="st1" d="M443.22,291.52h10.88v83.27h-10.88v-83.27ZM448.88,328.29h22.34v10.31h-22.34v-10.31ZM461.49,337.74l9.68-5.61,17.81,42.67h-11.62l-15.86-37.05ZM462.12,329.49l12.14-37.97h11.23l-16.32,47.42-7.04-9.45Z"/>
      <path class="st1" d="M501.35,373.19c-3.1-1.64-5.45-4.03-7.07-7.16-1.62-3.13-2.43-6.89-2.43-11.28v-43.18c0-4.43.81-8.21,2.43-11.34,1.62-3.13,3.98-5.51,7.07-7.13,3.09-1.62,6.81-2.44,11.17-2.44s8.07.81,11.16,2.44c3.1,1.62,5.45,4,7.07,7.13,1.62,3.13,2.43,6.91,2.43,11.34v43.18c0,4.39-.81,8.15-2.43,11.28-1.62,3.13-3.98,5.52-7.07,7.16-3.09,1.64-6.81,2.46-11.16,2.46s-8.08-.82-11.17-2.46ZM517.81,363.88c1.47-.78,2.59-1.92,3.35-3.41.76-1.49,1.14-3.28,1.14-5.38v-43.87c0-2.1-.38-3.89-1.14-5.38-.77-1.49-1.88-2.62-3.35-3.41-1.47-.78-3.23-1.17-5.29-1.17s-3.83.39-5.3,1.17c-1.47.78-2.59,1.92-3.35,3.41-.77,1.49-1.15,3.28-1.15,5.38v43.87c0,2.1.38,3.89,1.15,5.38.76,1.49,1.88,2.63,3.35,3.41,1.47.79,3.23,1.18,5.3,1.18s3.83-.39,5.29-1.18Z"/>
      <path class="st1" d="M588.69,291.52h9.56v83.27h-9.96v-63.05l.97,3.66-14.32,45.76h-6.99l-14.26-44.61,1.32-4.81v63.05h-10.37v-83.27h9.97l16.83,52.29,17.24-52.29Z"/>
      <path class="st1" d="M609.7,291.52h10.88v83.27h-10.88v-83.27ZM616.98,291.52h25.6v10.31h-25.6v-10.31ZM637.2,291.52h10.88v83.27h-10.88v-83.27Z"/>
      <path class="st1" d="M660.1,364.6h.12c1.3,0,2.41-.33,3.35-1,.94-.67,1.65-1.64,2.15-2.92.49-1.28.74-2.82.74-4.61v-64.55h10.88v65.23c0,3.78-.63,7.02-1.89,9.74-1.26,2.71-3.08,4.77-5.47,6.18-2.39,1.41-5.26,2.12-8.62,2.12h-1.26v-10.19ZM673.74,291.52h21.53v10.31h-21.53v-10.31ZM689.94,291.52h10.88v83.27h-10.88v-83.27Z"/>
      <path class="st1" d="M712.28,291.52h10.88v83.27h-10.88v-83.27ZM717.95,291.52h30.07v10.31h-30.07v-10.31ZM717.95,328.29h27.21v10.31h-27.21v-10.31ZM717.95,364.48h30.07v10.31h-30.07v-10.31Z"/>
      <path class="st1" d="M756.61,291.52h10.88v83.27h-10.88v-83.27ZM762.28,328.29h22.34v10.31h-22.34v-10.31ZM774.88,337.74l9.68-5.61,17.81,42.67h-11.62l-15.87-37.05ZM775.51,329.49l12.14-37.97h11.23l-16.32,47.42-7.04-9.45Z"/>
      <path class="st1" d="M814.16,373.13c-2.9-1.68-5.11-4.11-6.64-7.3-1.53-3.19-2.29-7.02-2.29-11.48v-42.33c0-4.5.76-8.35,2.29-11.54,1.53-3.18,3.73-5.62,6.61-7.3,2.88-1.68,6.36-2.52,10.45-2.52s7.58.84,10.48,2.52c2.9,1.68,5.11,4.12,6.62,7.3,1.5,3.19,2.26,7.02,2.26,11.48v3.55h-11v-3.55c0-2.25-.33-4.18-.97-5.78-.65-1.6-1.6-2.83-2.87-3.67-1.26-.84-2.77-1.26-4.52-1.26s-3.26.42-4.5,1.26c-1.24.84-2.2,2.06-2.87,3.67-.67,1.6-1,3.55-1,5.84v42.33c0,2.25.33,4.18,1,5.79.67,1.6,1.62,2.82,2.87,3.66,1.24.84,2.74,1.26,4.5,1.26s3.26-.42,4.52-1.26c1.26-.84,2.22-2.06,2.87-3.66.65-1.6.97-3.53.97-5.79v-3.55h11v3.55c0,4.47-.76,8.29-2.26,11.48-1.51,3.19-3.71,5.62-6.62,7.3-2.9,1.68-6.4,2.52-10.48,2.52s-7.53-.84-10.43-2.52Z"/>
      <path class="st1" d="M854.26,291.52h10.94v83.27h-10.94v-83.27ZM861.53,328.63h25.54v10.31h-25.54v-10.31ZM881.75,291.52h10.88v83.27h-10.88v-83.27Z"/>
      <path class="st1" d="M904.09,291.52h10.88v83.27h-10.88v-83.27ZM910.09,364.48h14.55c1.49,0,2.78-.34,3.87-1.03,1.09-.69,1.92-1.68,2.49-2.98.57-1.3.86-2.84.86-4.64v-11.62c0-1.87-.29-3.48-.86-4.81-.58-1.34-1.4-2.36-2.49-3.07-1.09-.71-2.38-1.06-3.87-1.06h-14.55v-10.31h14.09c3.93,0,7.28.74,10.05,2.23,2.77,1.49,4.88,3.67,6.33,6.53s2.18,6.3,2.18,10.31v12.09c0,3.93-.74,7.29-2.21,10.08-1.47,2.79-3.59,4.92-6.36,6.39s-6.1,2.2-9.99,2.2h-14.09v-10.31ZM958.95,374.79h-10.88v-83.27h10.88v83.27Z"/>
      <path class="st1" d="M1000.7,374.74v-60.88l1.37,1.49-22.74,59.39h-9.05v-83.22h10.48v61.28l-1.37-1.49,22.85-59.79h8.93v83.22h-10.48ZM1006.02,268.1c0,5.54-1.31,9.83-3.95,12.88-2.63,3.06-6.34,4.58-11.11,4.58h-.45c-4.78,0-8.48-1.53-11.11-4.58-2.64-3.05-3.95-7.35-3.95-12.88l9.45.12c0,2.79.49,4.95,1.46,6.5.97,1.55,2.36,2.32,4.16,2.32h.45c1.8,0,3.18-.77,4.16-2.32s1.46-3.71,1.46-6.5l9.45-.12Z"/>
      <path class="st1" d="M1048.75,373.13c-2.9-1.68-5.11-4.11-6.64-7.3-1.53-3.19-2.29-7.02-2.29-11.48v-42.33c0-4.5.76-8.35,2.29-11.54,1.53-3.18,3.73-5.62,6.61-7.3,2.88-1.68,6.36-2.52,10.45-2.52s7.58.84,10.48,2.52c2.9,1.68,5.1,4.12,6.61,7.3,1.51,3.19,2.26,7.02,2.26,11.48v3.55h-11v-3.55c0-2.25-.33-4.18-.97-5.78-.65-1.6-1.6-2.83-2.87-3.67-1.26-.84-2.77-1.26-4.52-1.26s-3.25.42-4.5,1.26c-1.24.84-2.19,2.06-2.86,3.67s-1.01,3.55-1.01,5.84v42.33c0,2.25.34,4.18,1.01,5.79.67,1.6,1.62,2.82,2.86,3.66,1.24.84,2.74,1.26,4.5,1.26s3.26-.42,4.52-1.26c1.26-.84,2.21-2.06,2.87-3.66.64-1.6.97-3.53.97-5.79v-3.55h11v3.55c0,4.47-.76,8.29-2.26,11.48-1.51,3.19-3.71,5.62-6.61,7.3-2.9,1.68-6.4,2.52-10.48,2.52s-7.52-.84-10.42-2.52Z"/>
      <path class="st1" d="M1088.84,291.52h10.88v83.27h-10.88v-83.27ZM1094.51,291.52h30.07v10.31h-30.07v-10.31ZM1094.51,328.29h27.21v10.31h-27.21v-10.31ZM1094.51,364.48h30.07v10.31h-30.07v-10.31Z"/>
      <path class="st1" d="M1133.17,291.52h10.88v83.27h-10.88v-83.27ZM1139.18,332.18h15.75c1.49,0,2.78-.35,3.86-1.03,1.09-.69,1.92-1.68,2.49-2.98.58-1.3.86-2.84.86-4.64v-12.77c0-1.87-.28-3.48-.86-4.81-.57-1.34-1.4-2.36-2.49-3.07-1.09-.71-2.37-1.06-3.86-1.06h-15.75v-10.31h15.52c3.93,0,7.28.74,10.05,2.23,2.77,1.49,4.87,3.67,6.33,6.53,1.45,2.87,2.18,6.3,2.18,10.31v13.23c0,3.94-.74,7.29-2.2,10.08-1.47,2.79-3.59,4.91-6.36,6.38-2.77,1.47-6.1,2.21-9.99,2.21h-15.52v-10.31Z"/>
      <path class="st1" d="M1184.43,291.52h10.88v83.27h-10.88v-83.27ZM1191.3,364.48h13.69c2.44,0,4.34-.61,5.7-1.83,1.35-1.22,2.03-2.96,2.03-5.21v-10.88c0-2.1-.35-3.89-1.03-5.38-.69-1.49-1.65-2.62-2.89-3.41-1.24-.78-2.7-1.17-4.38-1.17h-13.12v-10.31h13.12c2.29,0,4.07-.78,5.33-2.35,1.26-1.57,1.89-3.78,1.89-6.64v-8.48c0-2.21-.63-3.93-1.89-5.15-1.26-1.22-3-1.83-5.21-1.83h-13.23v-10.31h13.06c3.82,0,7.09.65,9.82,1.95,2.73,1.3,4.8,3.2,6.22,5.7,1.41,2.5,2.12,5.51,2.12,9.02v8.82c0,2.6-.42,4.91-1.26,6.93-.84,2.03-2.05,3.69-3.64,4.98-1.58,1.3-3.48,2.18-5.7,2.64,2.45.38,4.55,1.24,6.3,2.57,1.76,1.34,3.1,3.07,4.01,5.18.91,2.12,1.37,4.59,1.37,7.42v11c0,3.63-.69,6.71-2.06,9.25-1.37,2.54-3.39,4.48-6.04,5.81-2.65,1.34-5.85,2-9.6,2h-14.61v-10.31Z"/>
      <path class="st1" d="M1264.04,374.74v-60.88l1.37,1.49-22.74,59.39h-9.05v-83.22h10.48v61.28l-1.37-1.49,22.85-59.79h8.93v83.22h-10.48Z"/>
      <path class="st1" d="M1294.91,373.13c-2.9-1.68-5.11-4.11-6.64-7.3-1.53-3.19-2.29-7.02-2.29-11.48v-42.33c0-4.5.76-8.35,2.29-11.54,1.53-3.18,3.73-5.62,6.61-7.3,2.88-1.68,6.36-2.52,10.45-2.52s7.58.84,10.48,2.52c2.9,1.68,5.1,4.12,6.61,7.3,1.51,3.19,2.26,7.02,2.26,11.48v3.55h-11v-3.55c0-2.25-.33-4.18-.97-5.78-.65-1.6-1.6-2.83-2.87-3.67-1.26-.84-2.77-1.26-4.52-1.26s-3.25.42-4.5,1.26c-1.24.84-2.19,2.06-2.86,3.67-.67,1.6-1.01,3.55-1.01,5.84v42.33c0,2.25.34,4.18,1.01,5.79.67,1.6,1.62,2.82,2.86,3.66s2.74,1.26,4.5,1.26,3.26-.42,4.52-1.26c1.26-.84,2.21-2.06,2.87-3.66.64-1.6.97-3.53.97-5.79v-3.55h11v3.55c0,4.47-.76,8.29-2.26,11.48-1.51,3.19-3.71,5.62-6.61,7.3-2.9,1.68-6.4,2.52-10.48,2.52s-7.52-.84-10.42-2.52Z"/>
      <path class="st1" d="M1352.18,291.52h10.88v83.27h-10.88v-83.27ZM1359.05,364.48h13.69c2.44,0,4.34-.61,5.7-1.83,1.35-1.22,2.03-2.96,2.03-5.21v-10.88c0-2.1-.34-3.89-1.03-5.38-.68-1.49-1.65-2.62-2.89-3.41-1.24-.78-2.7-1.17-4.38-1.17h-13.11v-10.31h13.11c2.29,0,4.07-.78,5.33-2.35,1.26-1.57,1.89-3.78,1.89-6.64v-8.48c0-2.21-.63-3.93-1.89-5.15-1.26-1.22-3-1.83-5.21-1.83h-13.23v-10.31h13.06c3.81,0,7.09.65,9.82,1.95,2.73,1.3,4.8,3.2,6.22,5.7,1.41,2.5,2.12,5.51,2.12,9.02v8.82c0,2.6-.42,4.91-1.26,6.93-.84,2.03-2.06,3.69-3.64,4.98-1.59,1.3-3.49,2.18-5.7,2.64,2.44.38,4.54,1.24,6.3,2.57,1.76,1.34,3.09,3.07,4.01,5.18.92,2.12,1.38,4.59,1.38,7.42v11c0,3.63-.69,6.71-2.06,9.25s-3.39,4.48-6.04,5.81c-2.65,1.34-5.85,2-9.6,2h-14.6v-10.31Z"/>
      <path class="st1" d="M1409.11,373.13c-2.9-1.68-5.11-4.11-6.61-7.3-1.51-3.19-2.26-7.02-2.26-11.48v-3.55h11v3.55c0,2.25.32,4.18.97,5.79.65,1.6,1.6,2.82,2.87,3.66,1.26.84,2.77,1.26,4.52,1.26s3.25-.42,4.49-1.26c1.24-.84,2.2-2.06,2.87-3.66.67-1.6,1-3.53,1-5.79v-42.33c0-2.29-.33-4.24-1-5.84-.67-1.6-1.62-2.83-2.87-3.67-1.24-.84-2.74-1.26-4.49-1.26s-3.26.42-4.52,1.26c-1.26.84-2.22,2.06-2.87,3.67-.65,1.6-.97,3.53-.97,5.78v3.55h-11v-3.55c0-4.47.76-8.29,2.26-11.48,1.51-3.18,3.71-5.62,6.61-7.3,2.9-1.68,6.4-2.52,10.48-2.52s7.57.84,10.45,2.52c2.88,1.68,5.09,4.12,6.62,7.3,1.52,3.19,2.29,7.04,2.29,11.54v42.33c0,4.47-.76,8.29-2.29,11.48-1.53,3.19-3.74,5.62-6.64,7.3-2.9,1.68-6.38,2.52-10.42,2.52s-7.58-.84-10.48-2.52ZM1406.07,328.29h27.2v10.31h-27.2v-10.31Z"/>
      <path class="st1" d="M1443.53,364.48h47.82v10.31h-47.82v-10.31ZM1443.53,364.48h10.88v27.55h-10.88v-27.55ZM1445.13,364.48h1.37c2.52,0,4.48-1.36,5.87-4.09,1.39-2.73,2.09-6.58,2.09-11.54v-57.33h10.88v58.36c0,4.5-.7,8.37-2.09,11.6-1.4,3.23-3.41,5.68-6.05,7.36-2.63,1.68-5.82,2.52-9.56,2.52h-2.52v-6.88ZM1461.74,291.52h21.59v10.31h-21.59v-10.31ZM1479.1,291.52h10.88v83.27h-10.88v-83.27ZM1487.4,364.48h10.88v27.55h-10.88v-27.55Z"/>
    </g>
    <g>
      <path class="st0" d="M442.13,0h32.78v251.05h-32.78V0ZM457.49,113.88h46.24c5.87,0,10.9-1.09,15.1-3.28,4.2-2.18,7.39-5.35,9.58-9.49,2.18-4.14,3.28-9.14,3.28-15.01v-25.54c0-6.21-1.09-11.53-3.28-15.96-2.19-4.43-5.38-7.79-9.58-10.09-4.2-2.3-9.23-3.45-15.1-3.45h-46.24V0h43.31c13.34,0,24.79,2.22,34.34,6.64,9.55,4.43,16.82,10.93,21.83,19.5,5,8.57,7.51,18.84,7.51,30.8v29.33c0,12.31-2.5,22.86-7.51,31.66-5,8.8-12.28,15.5-21.83,20.1-9.55,4.6-20.99,6.9-34.34,6.9h-43.31v-31.06ZM500.62,137.17l30.89-7.94,40.03,121.82h-35.89l-35.03-113.88Z"/>
      <path class="st0" d="M601.73.17h32.78v250.88h-32.78V.17ZM618.82.17h90.59v31.06h-90.59V.17ZM618.82,110.95h81.96v31.06h-81.96v-31.06ZM618.82,219.99h90.59v31.06h-90.59v-31.06Z"/>
      <path class="st0" d="M735.28.17h32.78v250.88h-32.78V.17ZM753.4,122.68h47.45c4.49,0,8.37-1.04,11.65-3.11,3.28-2.07,5.78-5.06,7.51-8.97,1.73-3.91,2.59-8.57,2.59-13.97v-38.48c0-5.64-.86-10.47-2.59-14.49-1.72-4.02-4.23-7.1-7.51-9.23-3.28-2.13-7.16-3.19-11.65-3.19h-47.45V.17h46.76c11.85,0,21.94,2.24,30.28,6.73,8.34,4.49,14.69,11.04,19.07,19.67,4.37,8.63,6.56,18.98,6.56,31.06v39.86c0,11.85-2.22,21.97-6.64,30.37-4.43,8.4-10.81,14.81-19.15,19.24-8.34,4.43-18.38,6.64-30.11,6.64h-46.76v-31.06Z"/>
      <path class="st1" d="M872.46.17h121.82v31.06h-121.82V.17ZM916.97,20.71h32.78v230.35h-32.78V20.71Z"/>
      <path class="st1" d="M999.45,71.95h32.78v179.1h-32.78V71.95ZM1078.73,101.63h-3.54c-13.35,0-23.79,3.25-31.32,9.75-7.54,6.5-11.42,15.44-11.65,26.83l-3.62-35.03c5.87-10.81,13.37-19.24,22.52-25.28,9.15-6.04,19.24-9.06,30.28-9.06v32.78h-2.68Z"/>
      <path class="st1" d="M1118.33,241.13c-7.36-8.34-11.04-20.9-11.04-37.7,0-20.13,4.6-35.17,13.8-45.12,9.2-9.95,23.06-14.93,41.58-14.93h22.95l2.42,29.33h-25.19c-8.05,0-14.09,2.56-18.12,7.68-4.03,5.12-6.04,12.8-6.04,23.04,0,7.02,1.75,12.25,5.26,15.7,3.51,3.45,8.77,5.18,15.79,5.18,8.17,0,14.26-2.27,18.29-6.82,4.03-4.54,6.04-11.36,6.04-20.45l3.62,16.56c-.12,8.86-1.53,16.28-4.23,22.26-2.7,5.98-6.73,10.44-12.08,13.37-5.35,2.93-11.99,4.4-19.93,4.4-14.73,0-25.77-4.17-33.13-12.51ZM1184.07,120.09c0-7.25-1.93-12.85-5.78-16.82-3.86-3.97-9.23-5.95-16.13-5.95-6.1,0-10.84,1.98-14.24,5.95-3.39,3.97-5.09,9.58-5.09,16.82h-31.92c0-16.33,4.54-28.96,13.63-37.87,9.09-8.91,21.91-13.37,38.48-13.37,11.16,0,20.71,2.01,28.64,6.04,7.94,4.03,13.98,9.86,18.12,17.51,4.14,7.65,6.21,16.88,6.21,27.69v130.96h-31.92V120.09Z"/>
      <path class="st1" d="M1268.7,247.86c-5.92-4.2-10.44-10.29-13.54-18.29-3.11-7.99-4.66-17.63-4.66-28.9v-76.44c0-11.62,1.55-21.6,4.66-29.94,3.1-8.34,7.62-14.67,13.54-18.98,5.92-4.31,13.03-6.47,21.31-6.47s15.64,2.76,22.43,8.28c6.78,5.52,12.31,13.29,16.56,23.29l-3.62,25.54c0-5.52-.83-10.29-2.5-14.32-1.67-4.02-4.05-7.07-7.16-9.14-3.1-2.07-6.9-3.11-11.39-3.11-6.56,0-11.71,2.36-15.44,7.07-3.74,4.72-5.61,11.27-5.61,19.67v73.16c0,7.71,1.87,13.69,5.61,17.95,3.74,4.26,8.89,6.38,15.44,6.38,4.49,0,8.28-1.01,11.39-3.02,3.11-2.01,5.49-4.94,7.16-8.8,1.67-3.85,2.5-8.48,2.5-13.89l2.42,25.02c-3.22,9.89-8.11,17.57-14.67,23.04-6.56,5.46-14.27,8.2-23.12,8.2-8.28,0-15.39-2.1-21.31-6.3ZM1325.39.17h32.78v250.88h-32.78V.17Z"/>
      <path class="st1" d="M1417.78,246.65c-8.11-4.66-14.32-11.41-18.64-20.27-4.31-8.86-6.47-19.55-6.47-32.09v-62.63c0-13.23,2.1-24.56,6.3-33.99,4.2-9.43,10.27-16.59,18.2-21.48,7.94-4.89,17.48-7.33,28.64-7.33s20.93,2.27,28.99,6.81c8.05,4.55,14.18,11.16,18.37,19.84,4.2,8.69,6.3,19.18,6.3,31.49v47.28h-83.86v-27.09h52.45v-19.5c0-9.32-1.93-16.5-5.78-21.57-3.85-5.06-9.35-7.59-16.48-7.59s-12.25,2.7-16.05,8.11c-3.8,5.41-5.69,13.11-5.69,23.12v65.39c0,8.74,2.01,15.56,6.04,20.45,4.03,4.89,9.72,7.33,17.08,7.33,6.79,0,12.05-1.81,15.79-5.44,3.74-3.62,5.61-8.77,5.61-15.44v-1.21h31.4v1.21c0,16.45-4.6,29.16-13.8,38.13-9.2,8.97-22.2,13.46-39,13.46-11.5,0-21.31-2.33-29.42-6.99Z"/>
    </g>
  </g>
</svg>